<?xml version="1.0" standalone="no"?>
<!DOCTYPE svg PUBLIC "-//W3C//DTD SVG 20010904//EN"
 "http://www.w3.org/TR/2001/REC-SVG-20010904/DTD/svg10.dtd">
<svg version="1.0" xmlns="http://www.w3.org/2000/svg"
 width="500.000000pt" height="500.000000pt" viewBox="0 0 500.000000 500.000000"
 preserveAspectRatio="xMidYMid meet">
<metadata>
Created by potrace 1.14, written by Peter Selinger 2001-2017
</metadata>
<g transform="translate(0.000000,500.000000) scale(0.100000,-0.100000)"
fill="#000000" stroke="none">
<path d="M2410 4319 c-136 -8 -225 -23 -385 -64 -275 -71 -458 -164 -681 -343
-249 -200 -391 -376 -518 -642 -110 -230 -159 -420 -176 -671 -22 -322 48
-713 177 -989 123 -265 374 -545 626 -699 104 -64 331 -174 441 -216 257 -95
583 -124 861 -74 209 37 443 106 585 171 152 70 430 264 414 290 -4 6 -3 8 3
5 14 -9 163 148 242 255 124 165 223 370 275 568 35 131 71 369 71 465 0 44 4
86 9 93 12 20 -3 231 -26 352 -23 125 -75 288 -122 385 -31 63 -35 68 -41 45
-7 -27 7 -74 24 -85 6 -3 11 -21 11 -38 0 -18 9 -51 19 -74 23 -50 45 -149 37
-169 -3 -8 -1 -14 4 -14 5 0 14 -19 20 -42 7 -24 18 -65 26 -92 8 -26 11 -52
8 -57 -3 -5 -1 -9 4 -9 5 0 7 -13 4 -30 -2 -16 -8 -30 -12 -30 -7 0 -23 80
-25 125 -2 40 -17 85 -27 79 -7 -4 -8 2 -3 17 4 13 4 21 -1 16 -8 -7 -44 95
-43 123 0 8 7 -7 15 -34 9 -26 17 -46 20 -44 9 10 -27 108 -38 102 -7 -5 -9 0
-5 15 3 12 -1 34 -9 49 -8 15 -14 35 -14 45 0 9 -4 17 -9 17 -5 0 -9 13 -9 28
1 16 -13 55 -31 87 -17 32 -30 63 -27 69 3 6 8 1 11 -11 8 -24 14 -27 39 -17
13 5 13 11 -5 47 -27 53 -109 161 -133 177 -10 6 -15 7 -12 1 4 -5 2 -12 -4
-16 -5 -3 -13 7 -16 22 -11 44 -35 75 -53 68 -8 -3 -12 -3 -8 1 4 4 -7 22 -24
40 -28 29 -30 35 -18 50 12 15 6 24 -61 86 -219 203 -360 304 -555 399 -273
133 -544 186 -855 168z m-80 -239 c0 -5 -4 -10 -10 -10 -5 0 -10 5 -10 10 0 6
5 10 10 10 6 0 10 -4 10 -10z m420 -10 c13 -8 13 -10 -2 -10 -9 0 -22 -2 -30
-3 -7 -2 -10 -2 -5 0 4 3 5 9 1 14 -7 12 17 11 36 -1z m234 -25 c-2 -35 -18
-65 -35 -65 -15 0 -10 34 11 68 11 17 21 32 23 32 1 0 2 -16 1 -35z m-767 19
c-3 -3 -12 -4 -19 -1 -8 3 -5 6 6 6 11 1 17 -2 13 -5z m634 -26 c5 1 9 -2 9
-8 0 -13 -12 -13 -45 0 -22 8 -24 12 -13 24 11 13 15 13 26 -2 7 -9 18 -16 23
-14z m187 -10 c-2 -7 10 -13 27 -14 66 -5 145 -30 145 -46 0 -6 10 -8 23 -6
19 4 23 0 22 -21 -1 -14 3 -31 8 -38 6 -8 2 -11 -15 -9 -13 1 -29 6 -36 10 -8
5 -10 2 -5 -11 6 -16 5 -16 -10 -4 -9 7 -14 17 -11 22 3 5 -2 6 -10 3 -9 -3
-14 -10 -11 -14 3 -5 -4 -6 -16 -3 -11 3 -18 11 -15 18 3 8 -5 11 -22 9 -36
-4 -52 9 -22 17 l25 6 -26 11 c-15 6 -29 17 -32 26 -4 9 -14 13 -27 11 -11 -2
-20 1 -20 6 0 6 -5 7 -11 3 -8 -4 -8 0 0 15 12 22 43 29 39 9z m-431 -33 c417
-59 773 -252 1043 -565 223 -260 381 -635 384 -912 1 -63 5 -88 14 -88 11 0
16 13 13 34 -1 4 3 14 10 22 21 25 13 173 -15 304 -3 14 3 -2 15 -35 36 -106
38 -395 3 -381 -9 3 -14 -1 -14 -14 0 -11 -4 -20 -10 -20 -5 0 -10 -9 -10 -21
0 -16 4 -19 20 -14 27 9 25 -7 -5 -33 -14 -12 -25 -29 -25 -37 0 -8 -4 -15 -9
-15 -8 0 -18 -28 -27 -77 -8 -44 -68 -205 -116 -311 -10 -23 -16 -48 -12 -54
4 -6 3 -8 -2 -5 -11 6 -110 -151 -108 -170 1 -7 -2 -11 -6 -8 -12 7 -42 -44
-34 -57 4 -6 3 -8 -3 -5 -12 8 -97 -89 -89 -102 3 -5 -2 -15 -12 -22 -16 -13
-16 -12 -2 6 14 20 14 20 -7 1 -13 -10 -20 -23 -17 -28 3 -4 0 -7 -8 -6 -7 2
-12 -3 -10 -10 1 -6 -4 -11 -10 -10 -7 2 -12 -3 -10 -10 1 -6 -4 -11 -10 -10
-7 2 -12 -3 -10 -10 1 -8 -2 -11 -7 -8 -12 8 -33 -18 -23 -29 4 -5 1 -5 -7 0
-7 4 -16 3 -20 -2 -3 -6 -49 -42 -101 -82 -52 -39 -100 -75 -107 -81 -7 -5
-15 -10 -18 -10 -3 0 -41 -19 -83 -42 -42 -24 -81 -43 -87 -45 -31 -6 -205
-83 -180 -79 55 8 150 37 160 50 12 15 57 16 52 1 -3 -9 -106 -43 -178 -59
-14 -3 -45 -19 -70 -36 -49 -33 -78 -41 -39 -10 l25 20 -55 -17 c-30 -9 -68
-17 -85 -17 -16 -1 -34 -4 -40 -8 -12 -7 -110 -3 -123 6 -16 10 -43 -5 -40
-22 2 -8 -5 -16 -14 -17 -14 -3 -16 0 -8 15 16 29 14 30 -54 30 -42 0 -67 5
-75 14 -16 19 -91 26 -91 9 0 -7 -9 -13 -21 -13 -13 0 -18 -4 -13 -12 5 -8 2
-9 -9 -5 -9 3 -19 1 -23 -5 -4 -7 -9 -6 -14 2 -5 7 -22 13 -38 12 -19 0 -33 5
-36 15 -4 9 -14 13 -25 10 -11 -2 -23 3 -30 15 -7 12 -18 17 -27 14 -21 -8
-54 11 -54 31 0 11 6 14 23 9 12 -3 28 -6 35 -6 7 0 10 -4 7 -10 -6 -10 7 -14
32 -11 6 1 14 -3 18 -9 3 -5 24 -10 46 -10 21 0 39 -4 39 -9 0 -5 9 -7 20 -4
12 3 20 0 20 -6 0 -7 5 -9 10 -6 17 10 3 22 -34 29 -19 4 -88 24 -153 45 -228
73 -431 200 -618 386 -180 180 -309 384 -381 601 -37 113 -74 304 -74 380 0
25 -7 56 -17 70 -14 21 -15 43 -9 142 10 183 50 321 153 527 124 246 294 452
505 609 43 32 75 62 72 67 -3 5 3 9 14 9 10 0 54 20 98 45 99 57 207 99 350
136 186 49 315 58 481 34z m433 -36 c17 -13 18 -17 5 -10 -33 17 -51 31 -40
31 6 0 21 -10 35 -21z m-1307 -43 c0 -11 4 -15 13 -12 26 10 14 -1 -36 -32
-35 -22 -48 -36 -44 -46 3 -9 10 -13 15 -10 5 3 9 3 9 0 0 -3 -9 -10 -20 -16
-11 -6 -20 -7 -19 -3 5 29 -3 32 -35 11 -33 -21 -75 -71 -44 -52 7 5 22 10 32
11 11 2 -3 -14 -34 -39 -29 -24 -78 -64 -108 -91 -30 -26 -57 -45 -59 -43 -9
8 -3 21 10 21 6 1 10 7 9 15 -2 8 0 12 4 8 9 -10 35 12 28 23 -5 8 8 13 27 11
4 -1 15 8 24 18 17 19 17 20 -2 20 -25 0 -214 -181 -237 -227 -11 -21 -13 -33
-5 -33 6 0 13 9 16 20 3 11 10 20 15 20 5 0 6 6 2 13 -4 6 -3 9 1 4 5 -4 28
11 51 34 23 23 47 38 53 34 6 -3 9 -11 5 -16 -3 -5 -9 -7 -13 -5 -13 8 -83
-65 -157 -164 -124 -166 -207 -319 -274 -506 -21 -60 -39 -102 -39 -92 -2 33
72 226 125 327 30 58 54 106 54 108 0 2 -6 3 -13 3 -7 0 -21 -16 -31 -36 -9
-20 -19 -34 -22 -31 -4 4 53 108 99 177 16 24 15 25 -8 26 -15 1 -22 -2 -18
-9 4 -6 0 -8 -10 -4 -20 7 -48 -33 -98 -138 -17 -36 -33 -64 -36 -61 -13 13
128 256 149 256 5 0 7 4 4 9 -3 5 1 11 9 15 8 3 15 12 15 20 0 8 8 21 18 28 9
7 29 31 45 53 39 57 160 179 245 247 73 58 89 68 76 47 -4 -8 0 -8 15 0 12 7
27 9 34 5 6 -4 9 -4 5 1 -9 9 9 35 23 35 5 0 9 -9 9 -20 0 -20 4 -19 59 12 53
29 58 35 45 49 -8 8 -11 19 -7 23 11 11 28 0 26 -18z m1614 -3 c8 -10 11 -12
8 -5 -6 11 -3 12 14 2 12 -6 25 -18 28 -26 3 -7 9 -11 14 -8 13 8 67 -33 74
-56 4 -11 11 -18 16 -15 5 4 9 -4 9 -16 l0 -23 -27 25 c-16 14 -37 32 -48 40
-17 12 -16 10 4 -18 12 -18 29 -33 37 -33 8 0 14 -5 14 -10 0 -6 10 -21 23
-34 12 -12 29 -31 37 -41 14 -17 14 -17 -7 -4 -13 8 -23 17 -23 21 0 3 -14 9
-31 13 -18 4 -33 15 -36 26 -3 10 -15 21 -26 25 -12 4 -30 17 -40 30 -10 13
-27 24 -37 24 -11 0 -24 9 -30 20 -6 11 -17 20 -25 20 -21 0 -19 10 7 37 26
28 27 28 45 6z m-2047 -108 c-7 -8 -18 -15 -24 -15 -6 0 -2 7 8 15 25 19 32
19 16 0z m-170 -175 c-30 -38 -49 -54 -34 -27 20 33 49 67 57 67 5 0 -6 -18
-23 -40z m-104 -135 c-9 -13 -28 -46 -43 -72 -37 -67 -72 -123 -78 -123 -12 0
38 93 81 153 48 65 73 92 40 42z m100 -13 c-17 -16 -18 -16 -5 5 7 12 15 20
18 17 3 -2 -3 -12 -13 -22z m2714 -144 c0 -18 -27 11 -33 35 -6 22 -6 22 14
-2 10 -13 19 -28 19 -33z m-2805 0 c-15 -24 -49 -88 -76 -143 -27 -55 -46 -89
-43 -75 14 55 124 260 140 260 3 0 -7 -19 -21 -42z m2852 -87 c42 -94 44 -101
28 -94 -14 5 -19 17 -16 36 2 12 -32 66 -39 62 -3 -2 -6 4 -6 13 -1 9 -5 26
-9 36 -6 14 -5 17 4 11 7 -4 24 -33 38 -64z m-3038 -87 c-16 -49 -39 -127 -50
-174 -11 -47 -26 -103 -34 -125 -20 -56 -27 -127 -15 -135 7 -5 7 -16 -1 -36
-7 -16 -11 -35 -10 -41 1 -7 -3 -13 -9 -13 -5 0 -10 -9 -10 -20 0 -12 5 -17
13 -14 11 4 13 -12 12 -75 -1 -44 2 -128 6 -188 16 -199 18 -240 9 -208 -7 27
-8 28 -8 5 0 -14 4 -36 8 -50 7 -21 8 -22 9 -5 1 11 17 -33 36 -98 19 -65 39
-126 45 -137 5 -10 10 -25 10 -32 -2 -32 -50 85 -66 160 -10 45 -22 82 -26 82
-8 0 -3 -34 14 -105 12 -54 88 -234 101 -242 7 -4 8 0 3 13 -5 10 -10 28 -13
39 -9 40 16 -10 47 -96 17 -46 51 -116 76 -156 25 -40 47 -82 50 -93 2 -11 6
-29 8 -39 5 -21 33 -68 53 -89 16 -17 16 -23 1 -16 -13 5 -49 56 -100 139 -14
22 -23 46 -20 54 2 8 0 11 -5 8 -6 -4 -17 1 -26 11 -22 25 -98 182 -93 190 3
5 0 14 -6 22 -8 12 -9 12 -4 -2 3 -10 3 -18 0 -18 -5 0 -24 46 -30 74 -2 10
-10 26 -17 35 -8 9 -20 37 -27 64 -7 26 -16 47 -20 47 -4 0 -10 21 -14 46 -3
26 -11 53 -16 59 -6 7 -13 37 -16 66 -3 30 -10 68 -17 84 -20 51 -15 537 7
595 3 8 10 42 16 75 5 33 19 84 30 112 11 29 25 74 30 99 9 40 30 91 83 201
22 47 16 13 -14 -73z m3100 -84 c0 -10 -3 -8 -9 5 -12 27 -12 43 0 25 5 -8 9
-22 9 -30z m-3045 -94 c-10 -31 -19 -54 -22 -52 -2 2 4 29 14 60 10 31 19 54
22 52 2 -2 -4 -29 -14 -60z m56 36 c0 -10 -13 -60 -29 -112 -16 -52 -37 -121
-46 -154 -9 -32 -19 -56 -22 -53 -3 3 2 27 10 54 9 26 20 71 26 98 6 28 17 71
25 98 8 26 12 47 9 47 -3 0 0 6 6 13 6 8 8 17 4 20 -3 4 -1 7 5 7 7 0 12 -8
12 -18z m3090 -196 c0 -3 -4 -8 -10 -11 -5 -3 -10 -1 -10 4 0 6 5 11 10 11 6
0 10 -2 10 -4z m-13 -68 c-3 -7 -5 -2 -5 12 0 14 2 19 5 13 2 -7 2 -19 0 -25z
m10 -50 c-3 -8 -6 -5 -6 6 -1 11 2 17 5 13 3 -3 4 -12 1 -19z m260 -250 c-2
-13 -4 -3 -4 22 0 25 2 35 4 23 2 -13 2 -33 0 -45z m-180 10 c-3 -7 -5 -2 -5
12 0 14 2 19 5 13 2 -7 2 -19 0 -25z m-4 -58 c-3 -11 -7 -20 -9 -20 -2 0 -4 9
-4 20 0 11 4 20 9 20 5 0 7 -9 4 -20z m87 -194 c0 -3 -4 -8 -10 -11 -5 -3 -10
-1 -10 4 0 6 5 11 10 11 6 0 10 -2 10 -4z m-116 -51 c-4 -8 -9 -15 -13 -16 -3
0 -14 -2 -24 -4 -18 -3 -18 -3 -1 16 20 23 46 26 38 4z m37 -28 c-1 -12 -15
-9 -19 4 -3 6 1 10 8 8 6 -3 11 -8 11 -12z m16 -63 c7 -20 -22 -45 -43 -37 -9
3 -14 0 -12 -8 2 -8 -7 -15 -19 -17 -13 -2 -23 1 -23 7 0 6 7 11 15 11 8 0 15
5 15 10 0 6 14 10 30 10 28 0 30 2 20 20 -8 14 -8 20 0 20 6 0 13 -7 17 -16z
m124 -45 c-5 -13 -10 -19 -10 -12 -1 15 10 45 15 40 3 -2 0 -15 -5 -28z
m-3372 -46 c12 -24 19 -43 16 -43 -5 0 -45 75 -45 86 0 11 6 2 29 -43z m3111
-14 c-7 -11 -14 -18 -17 -15 -3 3 0 12 7 21 18 21 23 19 10 -6z m216 -21 c-9
-40 -13 -63 -20 -106 -6 -38 -45 -112 -59 -112 -17 0 0 76 31 147 17 37 33 76
36 86 10 30 19 18 12 -15z m-146 12 c0 -5 -5 -10 -11 -10 -5 0 -7 5 -4 10 3 6
8 10 11 10 2 0 4 -4 4 -10z m-30 -41 c0 -5 -6 -8 -12 -6 -7 1 -12 -4 -10 -10
1 -7 -3 -13 -9 -13 -6 0 -8 7 -5 16 3 9 6 20 6 25 0 4 7 6 15 3 8 -4 15 -10
15 -15z m-66 -15 c3 -8 2 -12 -4 -9 -6 3 -10 10 -10 16 0 14 7 11 14 -7z
m-2982 -101 c23 -43 46 -86 50 -95 4 -9 44 -68 88 -130 61 -84 71 -101 38 -68
-87 92 -152 185 -142 202 4 7 3 8 -4 4 -10 -6 -17 7 -10 17 1 1 -15 32 -35 68
-35 63 -42 79 -33 79 2 0 24 -35 48 -77z m3071 32 c-3 -9 -8 -14 -10 -11 -3 3
-2 9 2 15 9 16 15 13 8 -4z m-139 -40 c-4 -8 -10 -15 -15 -15 -4 0 -6 7 -3 15
4 8 10 15 15 15 4 0 6 -7 3 -15z m137 1 c14 8 11 -1 -23 -72 -24 -48 -29 -68
-20 -71 19 -7 14 -23 -7 -23 -26 0 -74 -85 -65 -114 5 -16 4 -18 -6 -9 -10 9
-22 -2 -53 -50 -23 -34 -57 -80 -77 -102 -61 -70 -213 -225 -217 -222 -2 2
-21 -14 -44 -35 -22 -21 -45 -35 -51 -32 -6 4 -8 3 -5 -3 14 -23 -340 -232
-366 -216 -4 2 -13 0 -20 -5 -15 -12 -186 -67 -269 -87 -72 -17 -98 -19 -98
-6 0 8 75 26 94 22 4 -1 13 2 20 7 6 5 36 17 66 27 30 10 63 24 72 32 9 8 25
12 35 9 55 -17 278 96 458 233 37 28 73 48 79 45 6 -3 3 1 -7 9 -12 10 -14 17
-8 22 6 3 11 1 11 -6 0 -7 12 -2 26 12 27 25 49 66 45 84 -1 6 3 4 10 -2 7 -7
16 -13 20 -13 4 0 35 33 70 73 35 39 53 63 41 53 -35 -30 -34 -15 1 26 68 79
136 177 192 275 33 59 62 100 68 96 6 -4 8 0 4 10 -3 10 -3 25 0 34 4 11 8 13
11 5 2 -7 8 -10 13 -6z m146 -8 c-3 -8 -6 -5 -6 6 -1 11 2 17 5 13 3 -3 4 -12
1 -19z m-3270 -10 c-12 53 10 14 99 -173 l23 -50 -24 30 c-14 17 -25 36 -25
43 0 6 -5 12 -11 12 -5 0 -8 4 -4 9 3 6 -4 15 -15 21 -11 6 -20 15 -20 21 0 6
5 7 12 3 7 -4 8 -3 4 5 -4 6 -11 9 -16 6 -5 -3 -21 18 -35 47 -23 47 -24 50
-5 28 21 -25 22 -25 17 -2z m2894 -51 c-10 -9 -11 -8 -5 6 3 10 9 15 12 12 3
-3 0 -11 -7 -18z m-7 -102 c-4 -8 -11 -15 -16 -15 -6 0 -5 6 2 15 7 8 14 15
16 15 2 0 1 -7 -2 -15z m-2844 -48 c0 -23 -2 -22 -19 10 -10 19 -9 22 4 17 8
-4 15 -15 15 -27z m248 -154 c62 -63 110 -118 107 -123 -9 -15 -23 -5 -130 95
-70 65 -104 105 -123 145 -37 77 -37 80 0 36 18 -22 84 -91 146 -153z m2563
150 c-13 -24 -94 -112 -85 -93 4 8 14 23 22 33 10 11 11 17 4 17 -7 0 -12 9
-12 21 0 12 5 19 13 16 6 -2 11 -11 9 -18 -2 -8 9 -2 25 14 32 31 37 34 24 10z
m67 -6 c13 5 14 3 5 -7 -13 -14 -33 -5 -32 13 0 9 2 9 5 0 3 -7 13 -9 22 -6z
m-58 -57 c-12 -16 -24 -30 -26 -30 -3 0 4 14 16 30 12 17 24 30 26 30 3 0 -4
-13 -16 -30z m-2669 -97 c34 -38 48 -63 34 -63 -9 0 -49 47 -87 105 -25 38
-30 49 -13 30 15 -16 44 -49 66 -72z m2626 32 c-7 -14 -15 -25 -20 -25 -4 0
-12 -11 -17 -25 -10 -27 -40 -34 -40 -10 0 8 7 15 14 15 8 0 27 16 42 35 31
41 36 44 21 10z m-77 -3 c0 -5 -15 -19 -32 -32 l-33 -23 29 31 c31 34 36 37
36 24z m-2349 -39 c13 -16 12 -17 -3 -4 -10 7 -18 15 -18 17 0 8 8 3 21 -13z
m2258 -55 c-19 -18 -46 -42 -59 -53 l-25 -20 23 26 c12 14 22 31 22 37 0 7 6
12 14 12 7 0 19 7 26 15 7 8 17 15 23 15 5 0 -5 -15 -24 -32z m-2309 -77 c0
-5 -37 26 -67 57 -43 43 -23 36 22 -8 25 -24 45 -46 45 -49z m83 -36 c20 -9
37 -24 37 -31 0 -24 -24 -15 -70 27 -25 22 -36 36 -25 31 11 -5 37 -17 58 -27z
m2426 -56 c-90 -90 -100 -56 -11 39 21 22 35 29 50 25 19 -5 15 -11 -39 -64z
m-334 52 c3 -6 -4 -15 -15 -21 -19 -10 -20 -10 -8 9 15 24 15 24 23 12z m85 5
c0 -2 -8 -10 -17 -17 -16 -13 -17 -12 -4 4 13 16 21 21 21 13z m-2219 -52 c13
-16 12 -16 -7 -6 -11 6 -27 19 -35 28 -13 16 -12 16 7 6 11 -6 27 -19 35 -28z
m2149 2 c0 -2 -8 -10 -17 -17 -16 -13 -17 -12 -4 4 13 16 21 21 21 13z m-1990
-36 l35 -30 -47 22 c-46 21 -62 38 -35 38 7 0 28 -14 47 -30z m1900 16 c0 -11
-19 -15 -25 -6 -3 5 1 10 9 10 9 0 16 -2 16 -4z m130 -47 c-35 -28 -60 -41
-60 -32 0 7 68 52 80 52 3 0 -6 -8 -20 -20z m-256 -24 c-6 -16 -24 -21 -24 -7
0 11 11 22 21 22 5 0 6 -7 3 -15z m-113 -61 c-17 -13 -25 -14 -34 -5 -9 9 -7
10 7 5 13 -5 17 -4 12 4 -5 8 1 12 16 12 l22 0 -23 -16z m-1207 -44 c6 -6 -2
-6 -24 0 -19 5 -38 14 -44 20 -6 6 2 6 24 0 19 -5 38 -14 44 -20z m719 -137
c-7 -2 -19 -2 -25 0 -7 3 -2 5 12 5 14 0 19 -2 13 -5z m327 -13 c0 -5 -5 -10
-11 -10 -5 0 -7 5 -4 10 3 6 8 10 11 10 2 0 4 -4 4 -10z m-950 -120 c13 -8 13
-10 -2 -10 -9 0 -20 5 -23 10 -8 13 5 13 25 0z m544 1 c3 -5 -1 -12 -10 -15
-27 -10 -52 -7 -58 9 -4 12 3 15 29 15 18 0 36 -4 39 -9z m71 -1 c-4 -6 6 -10
22 -11 27 -1 27 -1 -6 -10 -18 -6 -45 -8 -60 -6 -25 4 -26 4 -3 12 12 4 22 11
22 16 0 5 7 9 16 9 8 0 12 -4 9 -10z m82 -6 c-3 -3 -12 -4 -19 -1 -8 3 -5 6 6
6 11 1 17 -2 13 -5z m-239 -41 c-10 -2 -28 -2 -40 0 -13 2 -5 4 17 4 22 1 32
-1 23 -4z m-233 -33 c-10 -11 -22 -17 -27 -14 -5 3 -1 12 9 20 27 20 39 17 18
-6z"/>
<path d="M1725 2848 c-9 -28 -24 -96 -30 -141 -4 -28 -13 -51 -21 -54 -20 -8
-17 -23 5 -23 32 0 55 12 40 20 -19 12 -2 40 25 40 29 0 42 -16 27 -34 -13
-16 -4 -26 24 -26 29 0 38 11 20 24 -8 6 -21 45 -30 86 -23 117 -24 120 -41
120 -8 0 -17 -6 -19 -12z m33 -96 c2 -24 -1 -32 -12 -32 -12 0 -16 10 -16 36
0 45 24 42 28 -4z"/>
<path d="M2287 2854 c-15 -15 -6 -24 23 -24 l31 0 -3 -87 c-3 -88 -3 -88 -30
-91 -16 -2 -28 -9 -28 -15 0 -8 20 -12 62 -11 64 1 89 14 46 24 -22 6 -23 10
-23 90 0 80 1 84 23 90 13 3 24 10 25 15 2 11 -115 20 -126 9z"/>
<path d="M2068 2844 c-5 -4 -8 -17 -8 -30 0 -14 -8 -24 -22 -28 l-23 -6 23
-18 c17 -13 22 -26 20 -57 0 -22 4 -51 11 -63 21 -40 81 -23 96 26 6 20 4 23
-12 20 -10 -2 -16 -7 -15 -12 2 -5 -4 -14 -13 -19 -25 -13 -36 8 -33 63 3 41
6 45 31 48 37 5 34 20 -5 24 -27 2 -34 8 -38 31 -3 16 -8 25 -12 21z"/>
<path d="M3230 2825 c0 -16 -9 -29 -27 -39 l-28 -14 29 -11 c26 -10 28 -15 22
-46 -9 -46 16 -95 47 -95 29 0 53 19 60 47 8 34 -9 37 -31 6 -25 -34 -40 -24
-49 30 -7 43 9 67 43 67 36 0 29 18 -8 22 -28 2 -34 8 -36 31 -4 34 -22 36
-22 2z"/>
<path d="M1840 2780 c0 -5 8 -10 19 -10 14 0 20 -10 24 -45 8 -54 1 -75 -24
-75 -10 0 -19 -4 -19 -10 0 -12 67 -12 95 0 20 9 20 9 -2 15 -38 12 -34 71 6
102 21 16 31 16 31 -1 0 -17 27 -29 35 -16 3 5 1 19 -5 30 -12 22 -40 26 -70
10 -13 -7 -21 -7 -25 0 -8 13 -65 13 -65 0z"/>
<path d="M2505 2780 c-3 -6 -17 -7 -31 -4 -23 6 -34 -9 -15 -21 12 -7 12 -103
0 -111 -17 -10 -9 -25 13 -22 20 3 22 8 19 59 -2 41 2 59 13 68 9 8 16 12 17
10 6 -23 5 -100 -2 -105 -17 -10 -9 -24 14 -24 22 0 23 3 19 54 -3 35 0 56 8
61 6 4 13 5 15 3 6 -6 10 -91 4 -108 -3 -10 5 -16 24 -18 29 -4 37 14 15 36
-6 6 -11 31 -10 55 3 55 -16 84 -46 68 -14 -7 -23 -8 -27 -1 -8 13 -22 13 -30
0z"/>
<path d="M2878 2783 c-18 -5 -31 -30 -22 -44 9 -15 34 -10 34 6 0 21 27 30 45
15 26 -21 17 -39 -22 -45 -21 -3 -45 -10 -53 -14 -22 -12 -24 -48 -3 -59 25
-14 136 -8 141 7 2 6 -2 10 -10 9 -9 -2 -14 12 -16 49 -4 69 -33 92 -94 76z
m73 -112 c-9 -15 -21 -21 -46 -21 -62 0 -57 35 7 50 40 9 54 -1 39 -29z"/>
<path d="M3048 2771 c-9 -11 -20 -35 -23 -54 -12 -63 64 -116 114 -78 13 10
21 23 17 30 -5 7 -16 4 -36 -11 -29 -21 -30 -21 -50 -3 -22 20 -27 74 -8 93
19 19 55 14 61 -8 6 -24 35 -27 44 -5 17 46 -85 76 -119 36z"/>
<path d="M2658 2767 c20 -9 22 -17 22 -95 0 -69 -3 -87 -17 -98 -16 -12 -14
-13 20 -14 37 0 50 13 22 24 -16 6 -20 41 -6 51 5 3 12 1 16 -5 11 -18 51 -11
73 13 26 27 29 82 7 114 -13 18 -24 21 -87 21 -58 -1 -68 -3 -50 -11z m124
-28 c36 -48 -12 -116 -62 -89 -15 8 -20 21 -20 53 0 24 5 48 10 53 17 17 53 9
72 -17z"/>
<path d="M1867 2413 c-11 -11 -8 -75 3 -68 6 3 10 17 10 31 0 22 4 25 27 22
26 -3 27 -4 29 -83 1 -71 -1 -82 -19 -97 -30 -23 -16 -32 38 -24 47 7 59 20
27 28 -16 4 -20 19 -25 84 -6 86 -4 94 22 94 13 0 20 -10 25 -30 3 -16 10 -30
16 -30 14 0 13 53 -2 68 -13 13 -140 17 -151 5z"/>
<path d="M2058 2390 c19 -18 22 -31 22 -101 0 -62 -3 -81 -15 -85 -27 -11 -16
-24 17 -21 28 2 55 27 29 27 -20 0 -13 78 10 101 32 32 53 21 60 -31 7 -54 1
-80 -17 -80 -8 0 -14 -3 -14 -8 0 -4 18 -6 40 -4 41 4 52 15 25 26 -11 4 -15
20 -15 55 0 72 -31 98 -77 66 -19 -13 -22 -13 -27 1 -3 9 -6 29 -6 45 0 25 -4
29 -27 29 l-27 0 22 -20z"/>
<path d="M2275 2325 c-36 -35 -33 -79 6 -116 17 -16 39 -29 49 -29 22 0 68 36
58 46 -5 4 -17 -1 -27 -10 -21 -19 -50 -15 -76 10 -24 24 -9 34 51 34 49 0 54
2 54 23 0 28 -9 41 -37 56 -33 17 -51 14 -78 -14z m69 -5 c44 -16 33 -40 -18
-40 -53 0 -65 13 -34 34 27 19 21 18 52 6z"/>
<path d="M2420 2340 c0 -5 8 -10 19 -10 14 0 20 -10 24 -45 8 -54 1 -75 -24
-75 -10 0 -19 -4 -19 -10 0 -12 67 -12 95 0 20 9 20 9 -2 15 -38 12 -34 71 6
102 21 16 31 16 31 -1 0 -17 27 -29 35 -16 3 5 1 19 -5 30 -12 22 -40 26 -70
10 -13 -7 -21 -7 -25 0 -8 13 -65 13 -65 0z"/>
<path d="M2650 2343 c-33 -13 -41 -53 -11 -53 10 0 21 9 24 20 6 24 30 26 47
5 17 -21 5 -32 -44 -42 -46 -10 -66 -34 -50 -60 9 -14 25 -18 79 -18 46 0 70
4 73 13 2 7 -2 10 -12 6 -13 -5 -16 3 -16 49 0 46 -4 59 -22 71 -23 16 -42 19
-68 9z m70 -91 c0 -26 -20 -42 -51 -42 -53 0 -45 45 9 53 15 2 30 5 35 6 4 0
7 -7 7 -17z"/>
<path d="M2965 2340 c-3 -5 3 -10 13 -10 28 0 77 -121 62 -150 -10 -19 -12
-19 -36 -3 -21 13 -27 14 -34 3 -17 -27 22 -66 53 -54 12 4 38 50 43 74 0 3 6
16 11 30 6 14 18 42 27 63 9 20 23 37 32 37 8 0 12 5 9 10 -7 12 -75 14 -75 2
0 -4 4 -12 10 -18 10 -10 -8 -74 -21 -74 -8 0 -29 47 -29 65 0 8 5 15 11 15 5
0 7 5 4 10 -3 6 -21 10 -40 10 -19 0 -37 -4 -40 -10z"/>
<path d="M2793 2325 c15 -11 19 -29 20 -95 1 -70 -1 -84 -18 -96 -17 -13 -15
-14 26 -14 39 1 42 2 27 14 -10 7 -18 25 -18 40 0 23 2 25 19 16 62 -33 116
33 90 108 -12 36 -23 40 -104 40 -53 0 -58 -1 -42 -13z m125 -22 c18 -24 15
-57 -7 -84 -19 -23 -21 -23 -48 -9 -20 11 -29 25 -31 49 -6 60 52 90 86 44z"/>
<path d="M1526 3732 c-3 -5 1 -9 9 -9 8 0 12 4 9 9 -3 4 -7 8 -9 8 -2 0 -6 -4
-9 -8z"/>
<path d="M1233 3518 c-30 -33 -53 -69 -53 -85 0 -4 14 13 30 39 16 25 39 53
52 62 12 9 18 16 12 16 -5 0 -24 -15 -41 -32z"/>
<path d="M1136 3399 c-11 -11 -15 -19 -9 -19 12 0 38 28 32 34 -2 2 -13 -5
-23 -15z"/>
<path d="M1189 3388 c-42 -39 -103 -138 -92 -149 7 -7 21 7 43 43 18 29 46 70
62 91 33 41 25 50 -13 15z"/>
<path d="M727 2311 c-6 -24 3 -71 13 -71 7 0 2 79 -5 88 -1 1 -5 -6 -8 -17z"/>
<path d="M742 2210 c0 -14 2 -19 5 -12 2 6 2 18 0 25 -3 6 -5 1 -5 -13z"/>
<path d="M4012 1704 c-13 -25 -21 -48 -19 -50 6 -6 49 76 45 87 -2 6 -14 -11
-26 -37z"/>
<path d="M3897 1511 c-43 -64 -66 -102 -52 -86 35 40 138 195 134 199 -2 2
-39 -49 -82 -113z"/>
</g>
</svg>
